<svg width="1320" height="310" fill="none" xmlns="http://www.w3.org/2000/svg"><g opacity=".12" stroke="#fff"><path d="M1347.1 243.226c-49.37 0-89.39-39.727-89.39-88.725s40.02-88.726 89.39-88.726c49.38 0 89.4 39.728 89.4 88.726s-40.02 88.725-89.4 88.725z" fill="url(#paint0_linear)" fill-opacity=".4"/><path d="M1257.21 333.123c-99.03 0-179.3-79.974-179.3-178.622 0-98.649 80.27-178.622 179.3-178.622 99.02 0 179.29 79.973 179.29 178.622 0 98.648-80.27 178.622-179.29 178.622z" fill="url(#paint1_linear)" fill-opacity=".35"/><path d="M1167.31 423.019c-148.67 0-269.188-120.221-269.188-268.518 0-148.298 120.518-268.519 269.188-268.519S1436.5 6.203 1436.5 154.501c0 148.297-120.52 268.518-269.19 268.518z" fill="url(#paint2_linear)" fill-opacity=".35"/><circle cx="1078.09" cy="154.501" r="358.415" transform="rotate(90 1078.09 154.501)" fill="url(#paint3_linear)" fill-opacity=".35"/><circle cx="988.189" cy="154.5" r="448.311" transform="rotate(90 988.189 154.5)" fill="url(#paint4_linear)" fill-opacity=".35"/><path d="M898.293 692.708c-297.244 0-538.208-240.964-538.208-538.208 0-297.243 240.964-538.207 538.208-538.207 297.247 0 538.207 240.964 538.207 538.207 0 297.244-240.96 538.208-538.207 538.208z" fill="url(#paint5_linear)" fill-opacity=".35"/><path d="M808.396 782.604c-346.892 0-628.103-281.212-628.103-628.104 0-346.892 281.211-628.104 628.103-628.104 346.894 0 628.104 281.212 628.104 628.104 0 346.892-281.21 628.104-628.104 628.104z" fill="url(#paint6_linear)" fill-opacity=".35"/><circle cx="718.5" cy="154.5" r="718" transform="rotate(90 718.5 154.5)" fill="url(#paint7_linear)" fill-opacity=".35"/></g><defs><linearGradient id="paint0_linear" x1="1437" y1="154.501" x2="1257.21" y2="154.501" gradientUnits="userSpaceOnUse"><stop stop-color="#fff" stop-opacity="0"/><stop offset="1" stop-color="#fff"/></linearGradient><linearGradient id="paint1_linear" x1="1437" y1="154.501" x2="1077.41" y2="154.501" gradientUnits="userSpaceOnUse"><stop offset=".545" stop-color="#fff" stop-opacity="0"/><stop offset="1" stop-color="#fff"/></linearGradient><linearGradient id="paint2_linear" x1="1437" y1="154.501" x2="897.622" y2="154.501" gradientUnits="userSpaceOnUse"><stop offset=".545" stop-color="#fff" stop-opacity="0"/><stop offset="1" stop-color="#fff"/></linearGradient><linearGradient id="paint3_linear" x1="1078.09" y1="-204.414" x2="1078.09" y2="513.415" gradientUnits="userSpaceOnUse"><stop offset=".545" stop-color="#fff" stop-opacity="0"/><stop offset="1" stop-color="#fff"/></linearGradient><linearGradient id="paint4_linear" x1="988.189" y1="-294.311" x2="988.189" y2="603.311" gradientUnits="userSpaceOnUse"><stop offset=".545" stop-color="#fff" stop-opacity="0"/><stop offset="1" stop-color="#fff"/></linearGradient><linearGradient id="paint5_linear" x1="1437" y1="154.5" x2="359.585" y2="154.5" gradientUnits="userSpaceOnUse"><stop offset=".545" stop-color="#fff" stop-opacity="0"/><stop offset="1" stop-color="#fff"/></linearGradient><linearGradient id="paint6_linear" x1="1437" y1="154.5" x2="179.793" y2="154.5" gradientUnits="userSpaceOnUse"><stop offset=".545" stop-color="#fff" stop-opacity="0"/><stop offset="1" stop-color="#fff"/></linearGradient><linearGradient id="paint7_linear" x1="718.5" y1="-564" x2="718.5" y2="873" gradientUnits="userSpaceOnUse"><stop offset=".545" stop-color="#fff" stop-opacity="0"/><stop offset="1" stop-color="#fff"/></linearGradient></defs></svg>